<?xml version="1.0" encoding="UTF-8"?>
<svg width="200" height="60" viewBox="0 0 200 60" fill="none" xmlns="http://www.w3.org/2000/svg">
  <!-- TripNav Logo -->
  <g id="tripnav-logo">
    <!-- Location Pin -->
    <g id="location-pin">
      <path d="M25 15c-5.5 0-10 4.5-10 10 0 7.5 10 20 10 20s10-12.5 10-20c0-5.5-4.5-10-10-10z" fill="#FF7B00"/>
      <circle cx="25" cy="25" r="4" fill="white"/>
    </g>
    
    <!-- Airplane -->
    <g id="airplane" transform="translate(155, 18)">
      <path d="M0 8l8-3v-2l-3-1v-1l5-1 8 3 5-2 2 1-3 2-5 2-8-3-5 1v1l3 1v2l-8 3z" fill="#FF7B00"/>
      <path d="M8 5l12 0 8-3 4 2-6 3-8 0-10-2z" fill="#FF7B00"/>
    </g>
    
    <!-- Orange connecting line -->
    <path d="M35 25 Q95 15 155 25" stroke="#FF7B00" stroke-width="3" fill="none"/>
    
    <!-- Text "TripNav" -->
    <g id="text" fill="#1B365D">
      <!-- T -->
      <path d="M8 45h24v4h-10v16h-4v-16h-10v-4z"/>
      <!-- r -->
      <path d="M35 50h3v15h-3v-2c-1 1.5-2.5 2.5-4.5 2.5-1.5 0-2.5-0.5-3-1.5v-14h3v12c0 1 0.5 1.5 1.5 1.5s1.5-0.5 1.5-1.5v-12z"/>
      <!-- i -->
      <path d="M45 46h3v3h-3v-3zm0 4h3v15h-3v-15z"/>
      <!-- p -->
      <path d="M52 50h3v2c1-1.5 2.5-2.5 4.5-2.5 3 0 5 2 5 5v10h-3v-9c0-1.5-1-2.5-2.5-2.5s-2.5 1-2.5 2.5v9h-3v-15z"/>
      <!-- N -->
      <path d="M75 45h4l8 12v-12h4v20h-4l-8-12v12h-4v-20z"/>
      <!-- a -->
      <path d="M95 55c0-3 2-5.5 5-5.5s5 2.5 5 5.5v10h-3v-2c-1 1.5-2.5 2.5-4 2.5-2 0-3.5-1.5-3.5-3.5 0-2.5 2-3.5 4.5-3.5h3v-1c0-1.5-1-2.5-2.5-2.5s-2.5 1-2.5 2.5h-3zm7 5v-1h-2.5c-1 0-1.5 0.5-1.5 1.5s0.5 1.5 1.5 1.5 2.5-1 2.5-2z"/>
      <!-- v -->
      <path d="M110 50h3l3 12 3-12h3l-4.5 15h-3l-4.5-15z"/>
    </g>
  </g>
</svg> 